<mxfile host="65bd71144e">
    <diagram id="zBbb_w2fufU70cdOGtND" name="1 oldal">
        <mxGraphModel dx="992" dy="899" grid="1" gridSize="10" guides="1" tooltips="1" connect="1" arrows="1" fold="1" page="0" pageScale="1" pageWidth="660" pageHeight="610" background="none" math="0" shadow="0">
            <root>
                <mxCell id="0"/>
                <mxCell id="1" parent="0"/>
                <mxCell id="2" value="" style="rounded=0;whiteSpace=wrap;html=1;fillColor=#5E5B61;fontColor=#FFFFFF;strokeColor=none;spacing=0;" parent="1" vertex="1">
                    <mxGeometry width="490" height="550" as="geometry"/>
                </mxCell>
                <mxCell id="3" value="Parallel Reduce" style="text;strokeColor=none;fillColor=none;align=center;verticalAlign=middle;rounded=0;fontFamily=klavika;fontSize=17;fontColor=#FFFFFF;" parent="1" vertex="1">
                    <mxGeometry x="205" width="60" height="30" as="geometry"/>
                </mxCell>
                <mxCell id="5" value="" style="rounded=0;whiteSpace=wrap;html=1;fillColor=#C23555;fontColor=#FFFFFF;strokeColor=none;" parent="1" vertex="1">
                    <mxGeometry x="70" y="30" width="330" height="120" as="geometry"/>
                </mxCell>
                <mxCell id="6" value="&lt;font face=&quot;Klavika&quot; style=&quot;font-size: 17px;&quot;&gt;Input&lt;/font&gt;" style="text;html=1;strokeColor=none;fillColor=none;align=center;verticalAlign=middle;whiteSpace=wrap;rounded=0;fontSize=17;fontColor=#FFFFFF;" parent="1" vertex="1">
                    <mxGeometry x="205" y="30" width="60" height="30" as="geometry"/>
                </mxCell>
                <mxCell id="107" value="" style="rounded=0;whiteSpace=wrap;html=1;fillColor=#262626;fontColor=#FFFFFF;strokeColor=none;" parent="1" vertex="1">
                    <mxGeometry x="300" y="60" width="90" height="80" as="geometry"/>
                </mxCell>
                <mxCell id="141" value="" style="rounded=0;whiteSpace=wrap;html=1;fillColor=#262626;fontColor=#FFFFFF;strokeColor=none;" parent="1" vertex="1">
                    <mxGeometry x="190" y="60" width="90" height="80" as="geometry"/>
                </mxCell>
                <mxCell id="143" value="" style="rounded=0;whiteSpace=wrap;html=1;fillColor=#523E43;fontColor=#FFFFFF;strokeColor=none;" parent="1" vertex="1">
                    <mxGeometry x="10" y="160" width="220" height="120" as="geometry"/>
                </mxCell>
                <mxCell id="142" value="" style="rounded=0;whiteSpace=wrap;html=1;fillColor=#262626;fontColor=#FFFFFF;strokeColor=none;" parent="1" vertex="1">
                    <mxGeometry x="80" y="60" width="90" height="80" as="geometry"/>
                </mxCell>
                <mxCell id="145" value="8" style="text;html=1;strokeColor=none;fillColor=none;align=center;verticalAlign=middle;whiteSpace=wrap;rounded=0;fontFamily=Klavika;fontSize=17;fontColor=#FFFFFF;" parent="1" vertex="1">
                    <mxGeometry x="315" y="85" width="60" height="30" as="geometry"/>
                </mxCell>
                <mxCell id="146" value="13" style="text;html=1;strokeColor=none;fillColor=none;align=center;verticalAlign=middle;whiteSpace=wrap;rounded=0;fontFamily=Klavika;fontSize=17;fontColor=#FFFFFF;" parent="1" vertex="1">
                    <mxGeometry x="205" y="85" width="60" height="30" as="geometry"/>
                </mxCell>
                <mxCell id="147" value="5" style="text;html=1;strokeColor=none;fillColor=none;align=center;verticalAlign=middle;whiteSpace=wrap;rounded=0;fontFamily=Klavika;fontSize=17;fontColor=#FFFFFF;" parent="1" vertex="1">
                    <mxGeometry x="95" y="85" width="60" height="30" as="geometry"/>
                </mxCell>
                <mxCell id="284" value="" style="rounded=0;whiteSpace=wrap;html=1;fillColor=#262626;fontColor=#FFFFFF;strokeColor=none;" parent="1" vertex="1">
                    <mxGeometry x="20" y="190" width="90" height="80" as="geometry"/>
                </mxCell>
                <mxCell id="285" value="z" style="text;html=1;strokeColor=none;fillColor=none;align=center;verticalAlign=middle;whiteSpace=wrap;rounded=0;fontFamily=Klavika;fontSize=17;fontColor=#FFFFFF;" parent="1" vertex="1">
                    <mxGeometry x="35" y="215" width="60" height="30" as="geometry"/>
                </mxCell>
                <mxCell id="288" value="" style="rounded=0;whiteSpace=wrap;html=1;fillColor=#262626;fontColor=#FFFFFF;strokeColor=none;" parent="1" vertex="1">
                    <mxGeometry x="130" y="190" width="90" height="80" as="geometry"/>
                </mxCell>
                <mxCell id="289" value="5" style="text;html=1;strokeColor=none;fillColor=none;align=center;verticalAlign=middle;whiteSpace=wrap;rounded=0;fontFamily=Klavika;fontSize=17;fontColor=#FFFFFF;" parent="1" vertex="1">
                    <mxGeometry x="145" y="215" width="60" height="30" as="geometry"/>
                </mxCell>
                <mxCell id="290" value="&lt;font face=&quot;Klavika&quot; style=&quot;font-size: 17px;&quot;&gt;f(z,5)&lt;/font&gt;" style="text;html=1;strokeColor=none;fillColor=none;align=center;verticalAlign=middle;whiteSpace=wrap;rounded=0;fontSize=17;fontColor=#FFFFFF;" parent="1" vertex="1">
                    <mxGeometry x="90" y="160" width="60" height="30" as="geometry"/>
                </mxCell>
                <mxCell id="291" value="" style="endArrow=classic;html=1;dashed=1;strokeColor=#FFFFFF;fontColor=#FFFFFF;entryX=0.5;entryY=0;entryDx=0;entryDy=0;exitX=0.5;exitY=1;exitDx=0;exitDy=0;" parent="1" source="142" target="288" edge="1">
                    <mxGeometry width="50" height="50" relative="1" as="geometry">
                        <mxPoint x="124.5" y="140" as="sourcePoint"/>
                        <mxPoint x="125" y="180" as="targetPoint"/>
                    </mxGeometry>
                </mxCell>
                <mxCell id="292" value="" style="rounded=0;whiteSpace=wrap;html=1;fillColor=#523E43;fontColor=#FFFFFF;strokeColor=none;" parent="1" vertex="1">
                    <mxGeometry x="240" y="160" width="220" height="120" as="geometry"/>
                </mxCell>
                <mxCell id="293" value="" style="rounded=0;whiteSpace=wrap;html=1;fillColor=#262626;fontColor=#FFFFFF;strokeColor=none;" parent="1" vertex="1">
                    <mxGeometry x="250" y="190" width="90" height="80" as="geometry"/>
                </mxCell>
                <mxCell id="294" value="13" style="text;html=1;strokeColor=none;fillColor=none;align=center;verticalAlign=middle;whiteSpace=wrap;rounded=0;fontFamily=Klavika;fontSize=17;fontColor=#FFFFFF;" parent="1" vertex="1">
                    <mxGeometry x="265" y="215" width="60" height="30" as="geometry"/>
                </mxCell>
                <mxCell id="295" value="" style="rounded=0;whiteSpace=wrap;html=1;fillColor=#262626;fontColor=#FFFFFF;strokeColor=none;" parent="1" vertex="1">
                    <mxGeometry x="360" y="190" width="90" height="80" as="geometry"/>
                </mxCell>
                <mxCell id="296" value="8" style="text;html=1;strokeColor=none;fillColor=none;align=center;verticalAlign=middle;whiteSpace=wrap;rounded=0;fontFamily=Klavika;fontSize=17;fontColor=#FFFFFF;" parent="1" vertex="1">
                    <mxGeometry x="375" y="215" width="60" height="30" as="geometry"/>
                </mxCell>
                <mxCell id="297" value="&lt;font face=&quot;Klavika&quot; style=&quot;font-size: 17px;&quot;&gt;f(13,8)&lt;/font&gt;" style="text;html=1;strokeColor=none;fillColor=none;align=center;verticalAlign=middle;whiteSpace=wrap;rounded=0;fontSize=17;fontColor=#FFFFFF;" parent="1" vertex="1">
                    <mxGeometry x="320" y="160" width="60" height="30" as="geometry"/>
                </mxCell>
                <mxCell id="299" value="" style="rounded=0;whiteSpace=wrap;html=1;fillColor=#523E43;fontColor=#FFFFFF;strokeColor=none;" parent="1" vertex="1">
                    <mxGeometry x="125" y="290" width="220" height="120" as="geometry"/>
                </mxCell>
                <mxCell id="300" value="" style="rounded=0;whiteSpace=wrap;html=1;fillColor=#262626;fontColor=#FFFFFF;strokeColor=none;" parent="1" vertex="1">
                    <mxGeometry x="135" y="320" width="90" height="80" as="geometry"/>
                </mxCell>
                <mxCell id="301" value="5" style="text;html=1;strokeColor=none;fillColor=none;align=center;verticalAlign=middle;whiteSpace=wrap;rounded=0;fontFamily=Klavika;fontSize=17;fontColor=#FFFFFF;" parent="1" vertex="1">
                    <mxGeometry x="150" y="345" width="60" height="30" as="geometry"/>
                </mxCell>
                <mxCell id="302" value="" style="rounded=0;whiteSpace=wrap;html=1;fillColor=#262626;fontColor=#FFFFFF;strokeColor=none;" parent="1" vertex="1">
                    <mxGeometry x="245" y="320" width="90" height="80" as="geometry"/>
                </mxCell>
                <mxCell id="303" value="13" style="text;html=1;strokeColor=none;fillColor=none;align=center;verticalAlign=middle;whiteSpace=wrap;rounded=0;fontFamily=Klavika;fontSize=17;fontColor=#FFFFFF;" parent="1" vertex="1">
                    <mxGeometry x="260" y="345" width="60" height="30" as="geometry"/>
                </mxCell>
                <mxCell id="304" value="&lt;font face=&quot;Klavika&quot; style=&quot;font-size: 17px;&quot;&gt;f(f(z,5),f(13,8))&lt;br&gt;&lt;/font&gt;" style="text;html=1;strokeColor=none;fillColor=none;align=center;verticalAlign=middle;whiteSpace=wrap;rounded=0;fontSize=17;fontColor=#FFFFFF;" parent="1" vertex="1">
                    <mxGeometry x="205" y="290" width="60" height="30" as="geometry"/>
                </mxCell>
                <mxCell id="310" value="" style="rounded=0;whiteSpace=wrap;html=1;fillColor=#C23555;fontColor=#FFFFFF;strokeColor=none;" parent="1" vertex="1">
                    <mxGeometry x="175" y="420" width="120" height="120" as="geometry"/>
                </mxCell>
                <mxCell id="311" value="&lt;font face=&quot;Klavika&quot; style=&quot;font-size: 17px;&quot;&gt;Result&lt;/font&gt;" style="text;html=1;strokeColor=none;fillColor=none;align=center;verticalAlign=middle;whiteSpace=wrap;rounded=0;fontSize=17;fontColor=#FFFFFF;" parent="1" vertex="1">
                    <mxGeometry x="205" y="420" width="60" height="30" as="geometry"/>
                </mxCell>
                <mxCell id="312" value="" style="rounded=0;whiteSpace=wrap;html=1;fillColor=#262626;fontColor=#FFFFFF;strokeColor=none;" parent="1" vertex="1">
                    <mxGeometry x="190" y="450" width="90" height="80" as="geometry"/>
                </mxCell>
                <mxCell id="313" value="13" style="text;html=1;strokeColor=none;fillColor=none;align=center;verticalAlign=middle;whiteSpace=wrap;rounded=0;fontFamily=Klavika;fontSize=17;fontColor=#FFFFFF;" parent="1" vertex="1">
                    <mxGeometry x="205" y="475" width="60" height="30" as="geometry"/>
                </mxCell>
                <mxCell id="314" value="" style="endArrow=classic;html=1;dashed=1;strokeColor=#FFFFFF;fontColor=#FFFFFF;entryX=0.5;entryY=0;entryDx=0;entryDy=0;exitX=0.5;exitY=1;exitDx=0;exitDy=0;" parent="1" source="107" target="295" edge="1">
                    <mxGeometry width="50" height="50" relative="1" as="geometry">
                        <mxPoint x="135" y="150" as="sourcePoint"/>
                        <mxPoint x="185" y="200" as="targetPoint"/>
                    </mxGeometry>
                </mxCell>
                <mxCell id="315" value="" style="endArrow=classic;html=1;dashed=1;strokeColor=#FFFFFF;fontColor=#FFFFFF;entryX=0.5;entryY=0;entryDx=0;entryDy=0;exitX=0.5;exitY=1;exitDx=0;exitDy=0;" parent="1" source="141" target="293" edge="1">
                    <mxGeometry width="50" height="50" relative="1" as="geometry">
                        <mxPoint x="355" y="150" as="sourcePoint"/>
                        <mxPoint x="415" y="200" as="targetPoint"/>
                    </mxGeometry>
                </mxCell>
                <mxCell id="316" value="" style="endArrow=classic;html=1;dashed=1;strokeColor=#FFFFFF;fontColor=#FFFFFF;entryX=0.5;entryY=0;entryDx=0;entryDy=0;exitX=0.5;exitY=1;exitDx=0;exitDy=0;" parent="1" source="143" target="300" edge="1">
                    <mxGeometry width="50" height="50" relative="1" as="geometry">
                        <mxPoint x="135" y="150" as="sourcePoint"/>
                        <mxPoint x="185" y="200" as="targetPoint"/>
                    </mxGeometry>
                </mxCell>
                <mxCell id="317" value="" style="endArrow=classic;html=1;dashed=1;strokeColor=#FFFFFF;fontColor=#FFFFFF;entryX=0.5;entryY=0;entryDx=0;entryDy=0;exitX=0.5;exitY=1;exitDx=0;exitDy=0;" parent="1" source="292" target="302" edge="1">
                    <mxGeometry width="50" height="50" relative="1" as="geometry">
                        <mxPoint x="145" y="160" as="sourcePoint"/>
                        <mxPoint x="195" y="210" as="targetPoint"/>
                    </mxGeometry>
                </mxCell>
                <mxCell id="318" value="" style="endArrow=classic;html=1;dashed=1;strokeColor=#FFFFFF;fontColor=#FFFFFF;entryX=0;entryY=0;entryDx=0;entryDy=0;exitX=0.25;exitY=1;exitDx=0;exitDy=0;" parent="1" source="299" target="312" edge="1">
                    <mxGeometry width="50" height="50" relative="1" as="geometry">
                        <mxPoint x="130" y="290" as="sourcePoint"/>
                        <mxPoint x="190" y="330" as="targetPoint"/>
                    </mxGeometry>
                </mxCell>
            </root>
        </mxGraphModel>
    </diagram>
</mxfile>